<svg id="Layer_1" data-name="Layer 1" xmlns="http://www.w3.org/2000/svg" viewBox="0 0 606.59 445.96"><defs><style>.cls-1,.cls-10,.cls-12,.cls-17,.cls-5,.cls-6,.cls-7,.cls-8,.cls-9{fill:none;}.cls-1,.cls-17{stroke:#262626;stroke-width:0.5px;}.cls-1{stroke-linecap:square;}.cls-1,.cls-5,.cls-6,.cls-7,.cls-8,.cls-9{stroke-linejoin:round;}.cls-2,.cls-3{font-size:12px;}.cls-16,.cls-2,.cls-3{font-family:ArialMT, Arial;}.cls-3{fill:#262626;}.cls-4{fill:#0072bd;}.cls-5{stroke:#0072bd;}.cls-10,.cls-12,.cls-5,.cls-6,.cls-7,.cls-8,.cls-9{stroke-width:3px;}.cls-6{stroke:#d95319;}.cls-7{stroke:#edb120;}.cls-8{stroke:#7e2f8e;}.cls-9{stroke:#77ac30;}.cls-10,.cls-12{stroke:red;stroke-linejoin:bevel;}.cls-10{stroke-dasharray:12 12;}.cls-11,.cls-15{fill:#fff;}.cls-11{stroke:#000;}.cls-11,.cls-17{stroke-miterlimit:10;}.cls-12{stroke-dasharray:3 3;}.cls-13{fill:#d95319;}.cls-14{fill:#edb120;}.cls-16{font-size:10px;}</style></defs><title>S4_cyp_data</title><line class="cls-1" x1="347.57" y1="190.84" x2="598.82" y2="190.84"/><line class="cls-1" x1="347.57" y1="190.84" x2="347.57" y2="188.33"/><line class="cls-1" x1="397.82" y1="190.84" x2="397.82" y2="188.33"/><line class="cls-1" x1="448.07" y1="190.84" x2="448.07" y2="188.33"/><line class="cls-1" x1="498.32" y1="190.84" x2="498.32" y2="188.33"/><line class="cls-1" x1="548.57" y1="190.84" x2="548.57" y2="188.33"/><line class="cls-1" x1="598.82" y1="190.84" x2="598.82" y2="188.33"/><text class="cls-2" transform="translate(340.57 205.34)">0</text><text class="cls-2" transform="translate(388.19 205.34)">20</text><text class="cls-2" transform="translate(438.44 205.34)">40</text><text class="cls-2" transform="translate(488.69 205.34)">60</text><text class="cls-2" transform="translate(538.94 205.34)">80</text><text class="cls-2" transform="translate(586.57 205.34)">100</text><line class="cls-1" x1="347.57" y1="190.84" x2="347.57" y2="6.34"/><line class="cls-1" x1="347.57" y1="190.84" x2="350.08" y2="190.84"/><line class="cls-1" x1="347.57" y1="153.94" x2="350.08" y2="153.94"/><line class="cls-1" x1="347.57" y1="117.04" x2="350.08" y2="117.04"/><line class="cls-1" x1="347.57" y1="80.14" x2="350.08" y2="80.14"/><line class="cls-1" x1="347.57" y1="43.24" x2="350.08" y2="43.24"/><line class="cls-1" x1="347.57" y1="6.34" x2="350.08" y2="6.34"/><text class="cls-3" transform="translate(337.57 194.97)">0</text><text class="cls-3" transform="translate(332.32 158.07)">20</text><text class="cls-3" transform="translate(332.32 121.17)">40</text><text class="cls-3" transform="translate(332.32 84.27)">60</text><text class="cls-3" transform="translate(332.32 47.37)">80</text><text class="cls-3" transform="translate(327.07 10.47)">100</text><polygon class="cls-4" points="376.94 147.72 376.27 145.22 374.44 143.39 371.94 142.72 369.44 143.39 367.62 145.22 366.94 147.72 367.62 150.22 369.44 152.05 371.94 152.72 374.44 152.05 376.27 150.22 376.94 147.72"/><polygon class="cls-4" points="373.94 100.47 373.27 97.97 371.44 96.14 368.94 95.47 366.44 96.14 364.62 97.97 363.94 100.47 364.62 102.97 366.44 104.8 368.94 105.47 371.44 104.8 373.27 102.97 373.94 100.47"/><polygon class="cls-4" points="373.19 158.97 372.52 156.47 370.69 154.64 368.19 153.97 365.69 154.64 363.87 156.47 363.19 158.97 363.87 161.47 365.69 163.3 368.19 163.97 370.69 163.3 372.52 161.47 373.19 158.97"/><polygon class="cls-4" points="376.19 140.22 375.52 137.72 373.69 135.89 371.19 135.22 368.69 135.89 366.87 137.72 366.19 140.22 366.87 142.72 368.69 144.55 371.19 145.22 373.69 144.55 375.52 142.72 376.19 140.22"/><polygon class="cls-4" points="373.19 95.97 372.52 93.47 370.69 91.64 368.19 90.97 365.69 91.64 363.87 93.47 363.19 95.97 363.87 98.47 365.69 100.3 368.19 100.97 370.69 100.3 372.52 98.47 373.19 95.97"/><polygon class="cls-4" points="371.69 151.47 371.02 148.97 369.19 147.14 366.69 146.47 364.19 147.14 362.37 148.97 361.69 151.47 362.37 153.97 364.19 155.8 366.69 156.47 369.19 155.8 371.02 153.97 371.69 151.47"/><polygon class="cls-4" points="374.69 164.22 374.02 161.72 372.19 159.89 369.69 159.22 367.19 159.89 365.37 161.72 364.69 164.22 365.37 166.72 367.19 168.55 369.69 169.22 372.19 168.55 374.02 166.72 374.69 164.22"/><polygon class="cls-4" points="370.94 111.72 370.27 109.22 368.44 107.39 365.94 106.72 363.44 107.39 361.62 109.22 360.94 111.72 361.62 114.22 363.44 116.05 365.94 116.72 368.44 116.05 370.27 114.22 370.94 111.72"/><polygon class="cls-4" points="370.19 177.72 369.52 175.22 367.69 173.39 365.19 172.72 362.69 173.39 360.87 175.22 360.19 177.72 360.87 180.22 362.69 182.05 365.19 182.72 367.69 182.05 369.52 180.22 370.19 177.72"/><polygon class="cls-4" points="375.44 149.97 374.77 147.47 372.94 145.64 370.44 144.97 367.94 145.64 366.12 147.47 365.44 149.97 366.12 152.47 367.94 154.3 370.44 154.97 372.94 154.3 374.77 152.47 375.44 149.97"/><polygon class="cls-4" points="383.69 189.72 383.02 187.22 381.19 185.39 378.69 184.72 376.19 185.39 374.37 187.22 373.69 189.72 374.37 192.22 376.19 194.05 378.69 194.72 381.19 194.05 383.02 192.22 383.69 189.72"/><polygon class="cls-4" points="375.44 188.97 374.77 186.47 372.94 184.64 370.44 183.97 367.94 184.64 366.12 186.47 365.44 188.97 366.12 191.47 367.94 193.3 370.44 193.97 372.94 193.3 374.77 191.47 375.44 188.97"/><polygon class="cls-4" points="376.94 142.47 376.27 139.97 374.44 138.14 371.94 137.47 369.44 138.14 367.62 139.97 366.94 142.47 367.62 144.97 369.44 146.8 371.94 147.47 374.44 146.8 376.27 144.97 376.94 142.47"/><polygon class="cls-4" points="384.44 180.72 383.77 178.22 381.94 176.39 379.44 175.72 376.94 176.39 375.12 178.22 374.44 180.72 375.12 183.22 376.94 185.05 379.44 185.72 381.94 185.05 383.77 183.22 384.44 180.72"/><polygon class="cls-4" points="376.94 182.97 376.27 180.47 374.44 178.64 371.94 177.97 369.44 178.64 367.62 180.47 366.94 182.97 367.62 185.47 369.44 187.3 371.94 187.97 374.44 187.3 376.27 185.47 376.94 182.97"/><polygon class="cls-4" points="378.44 166.47 377.77 163.97 375.94 162.14 373.44 161.47 370.94 162.14 369.12 163.97 368.44 166.47 369.12 168.97 370.94 170.8 373.44 171.47 375.94 170.8 377.77 168.97 378.44 166.47"/><polygon class="cls-4" points="385.94 171.72 385.27 169.22 383.44 167.39 380.94 166.72 378.44 167.39 376.62 169.22 375.94 171.72 376.62 174.22 378.44 176.05 380.94 176.72 383.44 176.05 385.27 174.22 385.94 171.72"/><polygon class="cls-4" points="378.44 169.47 377.77 166.97 375.94 165.14 373.44 164.47 370.94 165.14 369.12 166.97 368.44 169.47 369.12 171.97 370.94 173.8 373.44 174.47 375.94 173.8 377.77 171.97 378.44 169.47"/><polygon class="cls-4" points="397.94 188.22 397.27 185.72 395.44 183.89 392.94 183.22 390.44 183.89 388.62 185.72 387.94 188.22 388.62 190.72 390.44 192.55 392.94 193.22 395.44 192.55 397.27 190.72 397.94 188.22"/><polygon class="cls-4" points="394.94 127.47 394.27 124.97 392.44 123.14 389.94 122.47 387.44 123.14 385.62 124.97 384.94 127.47 385.62 129.97 387.44 131.8 389.94 132.47 392.44 131.8 394.27 129.97 394.94 127.47"/><polygon class="cls-4" points="394.19 179.22 393.52 176.72 391.69 174.89 389.19 174.22 386.69 174.89 384.87 176.72 384.19 179.22 384.87 181.72 386.69 183.55 389.19 184.22 391.69 183.55 393.52 181.72 394.19 179.22"/><polygon class="cls-4" points="405.44 148.47 404.77 145.97 402.94 144.14 400.44 143.47 397.94 144.14 396.12 145.97 395.44 148.47 396.12 150.97 397.94 152.8 400.44 153.47 402.94 152.8 404.77 150.97 405.44 148.47"/><polygon class="cls-4" points="402.44 101.22 401.77 98.72 399.94 96.89 397.44 96.22 394.94 96.89 393.12 98.72 392.44 101.22 393.12 103.72 394.94 105.55 397.44 106.22 399.94 105.55 401.77 103.72 402.44 101.22"/><polygon class="cls-4" points="401.69 159.72 401.02 157.22 399.19 155.39 396.69 154.72 394.19 155.39 392.37 157.22 391.69 159.72 392.37 162.22 394.19 164.05 396.69 164.72 399.19 164.05 401.02 162.22 401.69 159.72"/><polygon class="cls-4" points="397.94 146.22 397.27 143.72 395.44 141.89 392.94 141.22 390.44 141.89 388.62 143.72 387.94 146.22 388.62 148.72 390.44 150.55 392.94 151.22 395.44 150.55 397.27 148.72 397.94 146.22"/><polygon class="cls-4" points="394.94 99.72 394.27 97.22 392.44 95.39 389.94 94.72 387.44 95.39 385.62 97.22 384.94 99.72 385.62 102.22 387.44 104.05 389.94 104.72 392.44 104.05 394.27 102.22 394.94 99.72"/><polygon class="cls-4" points="394.19 157.47 393.52 154.97 391.69 153.14 389.19 152.47 386.69 153.14 384.87 154.97 384.19 157.47 384.87 159.97 386.69 161.8 389.19 162.47 391.69 161.8 393.52 159.97 394.19 157.47"/><text class="cls-2" transform="translate(417.07 216.6)">% Change Mean [RA]</text><text class="cls-3" transform="translate(324.73 161.01) rotate(-90)">% Change Variance [RA]</text><line class="cls-1" x1="347.83" y1="416.22" x2="599.08" y2="416.22"/><line class="cls-1" x1="347.83" y1="416.22" x2="347.83" y2="413.71"/><line class="cls-1" x1="473.45" y1="416.22" x2="473.45" y2="413.71"/><line class="cls-1" x1="599.08" y1="416.22" x2="599.08" y2="413.71"/><text class="cls-3" transform="translate(344.58 429.53)">0</text><text class="cls-3" transform="translate(464.7 429.53)">0.5</text><text class="cls-3" transform="translate(595.83 429.53)">1</text><line class="cls-1" x1="347.83" y1="416.22" x2="347.83" y2="231.72"/><line class="cls-1" x1="347.83" y1="416.22" x2="350.34" y2="416.22"/><line class="cls-1" x1="347.83" y1="323.97" x2="350.34" y2="323.97"/><line class="cls-1" x1="347.83" y1="231.72" x2="350.34" y2="231.72"/><text class="cls-3" transform="translate(334.73 423.35)">0</text><text class="cls-3" transform="translate(325.73 327.98)">0.5</text><text class="cls-3" transform="translate(337.73 238.85)">1</text><polyline class="cls-5" points="347.83 416.22 351.22 375.64 354.62 365.73 358.01 356.86 361.41 351.58 364.81 346.03 368.2 341.93 371.6 338.36 374.99 335.56 378.38 332.74 381.78 329.31 385.18 325.65 388.57 322.08 391.97 318.81 395.36 315.98 398.76 313.58 402.15 311.44 405.55 309.34 408.94 307.16 412.34 304.85 415.73 302.44 419.13 299.95 422.52 297.39 425.92 294.79 429.31 292.12 432.71 289.36 436.1 286.49 439.5 283.49 442.89 280.36 446.29 277.11 449.68 273.72 453.08 270.19 456.48 266.51 459.87 262.68 463.26 258.76 466.66 254.82 470.06 251 473.45 247.43 476.85 244.22 480.24 241.47 483.64 239.19 487.03 237.37 490.43 235.97 493.82 234.92 497.22 234.16 500.61 233.63 504.01 233.25 507.4 233 510.8 232.83 514.19 232.71"/><polyline class="cls-5" points="510.8 232.83 514.19 232.71 517.59 232.64 520.98 232.59 524.38 232.56 527.77 232.54 531.17 232.52 534.56 232.51 537.96 232.5 541.35 232.49 544.75 232.47 548.14 232.46 551.54 232.43 554.93 232.41 558.33 232.38 561.73 232.35 565.12 232.31 568.52 232.27 571.91 232.23 575.31 232.19 578.7 232.15 582.1 232.1 585.49 232.06 588.89 232.02 592.28 231.99 595.68 231.95 599.07 231.92 599.1 231.92"/><polyline class="cls-6" points="432.73 416.22 435.29 416.22 437.86 416.22 440.42 416.21 442.98 416.2 445.54 416.16 448.11 416.08 450.67 415.93 453.23 415.66 455.8 415.19 458.36 414.44 460.92 413.31 463.49 411.68 466.05 409.47 468.61 406.6 471.17 403.04 473.74 398.78 476.3 393.87 478.86 388.4 481.43 382.47 483.99 376.19 486.55 369.66 489.11 362.97 491.68 356.2 494.24 349.39 496.8 342.57 499.37 335.75 501.93 328.94 504.49 322.14 507.05 315.37 509.62 308.66 512.18 302.03 514.74 295.54 517.31 289.24 519.87 283.18 522.43 277.41 525 271.98 527.56 266.93 530.12 262.29 532.68 258.07 535.25 254.29 537.81 250.92 540.37 247.96 542.93 245.39 545.5 243.17 548.06 241.28 550.63 239.69 553.19 238.34 555.75 237.23 558.31 236.3"/><polyline class="cls-6" points="555.75 237.23 558.31 236.3 560.88 235.54 563.44 234.91 566 234.4 568.57 233.98 571.13 233.64 573.69 233.36 576.25 233.13 578.82 232.94 581.38 232.78 583.94 232.65 586.5 232.53 589.07 232.44 591.63 232.35 594.19 232.28 596.76 232.21 599.1 232.16"/><polyline class="cls-7" points="347.83 416.22 351.25 390.52 354.67 381.49 358.1 375.72 361.52 371.2 364.94 365.68 368.36 361.53 371.79 358.41 375.21 355.48 378.63 352.46 382.05 349.34 385.47 346.22 388.9 343.06 392.32 339.88 395.74 336.87 399.16 334.17 402.58 331.82 406.01 329.75 409.43 327.8 412.85 325.82 416.27 323.71 419.69 321.44 423.12 319.04 426.54 316.52 429.96 313.93 433.38 311.28 436.81 308.53 440.23 305.67 443.65 302.63 447.07 299.36 450.49 295.8 453.92 291.94 457.34 287.76 460.76 283.29 464.18 278.62 467.6 273.87 471.03 269.19 474.45 264.72 477.87 260.61 481.29 256.92 484.71 253.71 488.14 250.98 491.56 248.69 494.98 246.77 498.4 245.16 501.83 243.81 505.25 242.65 508.67 241.63 512.09 240.74 515.51 239.95"/><polyline class="cls-7" points="512.09 240.74 515.51 239.95 518.94 239.24 522.36 238.6 525.78 238.03 529.2 237.51 532.63 237.06 536.05 236.64 539.47 236.27 542.89 235.93 546.31 235.62 549.74 235.34 553.16 235.06 556.58 234.81 560 234.56 563.42 234.32 566.85 234.09 570.27 233.86 573.69 233.65 577.11 233.44 580.53 233.25 583.96 233.06 587.38 232.89 590.8 232.73 594.22 232.59 597.64 232.46 599.1 232.41"/><polyline class="cls-8" points="348.35 416.22 351.77 415.22 355.19 414.32 358.6 413.4 362.02 412.63 365.44 411.54 368.86 410.26 372.28 408.77 375.7 407.19 379.12 405.88 382.54 404.65 385.96 403.38 389.38 402.05 392.79 400.67 396.21 399.33 399.63 398.07 403.05 396.86 406.47 395.66 409.89 394.37 413.31 392.92 416.73 391.31 420.14 389.57 423.56 387.74 426.98 385.88 430.4 384.02 433.82 382.17 437.24 380.28 440.66 378.29 444.08 376.15 447.5 373.81 450.92 371.21 454.33 368.29 457.75 364.93 461.17 360.99 464.59 356.35 468.01 350.9 471.43 344.64 474.85 337.65 478.27 330.07 481.69 322.12 485.1 314.02 488.52 305.98 491.94 298.14 495.36 290.64 498.78 283.53 502.2 276.88 505.62 270.71 509.04 265.06 512.46 259.94 515.87 255.38"/><polyline class="cls-8" points="512.46 259.94 515.87 255.38 519.29 251.37 522.71 247.91 526.13 244.97 529.55 242.51 532.97 240.5 536.39 238.87 539.81 237.58 543.23 236.56 546.64 235.76 550.06 235.14 553.48 234.66 556.9 234.28 560.32 233.99 563.74 233.75 567.16 233.55 570.58 233.38 574 233.23 577.41 233.1 580.83 232.97 584.25 232.85 587.67 232.74 591.09 232.63 594.51 232.53 597.93 232.43 599.1 232.4"/><polyline class="cls-9" points="348.46 416.22 351.88 415.27 355.3 414.04 358.72 413.73 362.14 413.39 365.56 413.23 368.98 413.08 372.4 412.73 375.82 412.39 379.24 411.95 382.66 411.58 386.08 411.26 389.5 410.88 392.92 410.44 396.34 409.94 399.75 409.37 403.17 408.78 406.59 408.25 410.01 407.82 413.43 407.45 416.85 407.11 420.27 406.73 423.69 406.3 427.11 405.82 430.53 405.31 433.95 404.76 437.37 404.17 440.79 403.5 444.21 402.74 447.63 401.84 451.05 400.73 454.46 399.31 457.88 397.43 461.3 394.9 464.72 391.56 468.14 387.29 471.56 382.04 474.98 375.93 478.4 369.12 481.82 361.87 485.24 354.43 488.66 347 492.08 339.74 495.5 332.71 498.92 325.94 502.33 319.41 505.75 313.1 509.17 306.99 512.59 301.07 516.01 295.36"/><polyline class="cls-9" points="512.59 301.07 516.01 295.36 519.43 289.9 522.85 284.73 526.27 279.87 529.69 275.36 533.11 271.21 536.53 267.45 539.95 264.05 543.37 261 546.79 258.29 550.21 255.87 553.63 253.73 557.04 251.81 560.46 250.09 563.88 248.53 567.3 247.1 570.72 245.78 574.14 244.55 577.56 243.39 580.98 242.29 584.4 241.25 587.82 240.25 591.24 239.31 594.66 238.43 598.08 237.6 599.1 237.37"/><polyline class="cls-10" points="353.88 416.21 356.78 410.62 359.68 409.39 362.58 409.38 365.48 408.83 368.38 405.25 371.28 400.35 374.18 397 377.08 395.9 379.98 395.74 382.88 395.72 385.78 395.72 388.68 395.72 391.58 395.72 394.48 395.72 397.38 395.72 400.28 395.69 403.18 395.59 406.08 395.29 408.98 394.62 411.88 393.4 414.78 391.54 417.68 389.13 420.58 386.38 423.48 383.59 426.38 381.06 429.28 379 432.18 377.47 435.08 376.4 437.98 375.65 440.88 375.04 443.78 374.43 446.68 373.68 449.58 372.7 452.48 371.44 455.38 369.86 458.28 367.95 461.18 365.69 464.08 363.1 466.99 360.17 469.88 356.94 472.79 353.45 475.69 349.76 478.58 345.95 481.49 342.1 484.38 338.29 487.29 334.56 490.19 330.95 493.09 327.45 495.99 324.06 498.89 320.7 501.79 317.35 504.69 313.93 507.59 310.4 510.49 306.74 513.39 302.91 516.29 298.93 519.19 294.82 522.09 290.62 524.99 286.37 527.89 282.14 530.79 277.98 533.69 273.93 536.59 270.04 539.49 266.34 542.39 262.86 545.29 259.61 548.19 256.58 551.09 253.79 553.99 251.22 556.89 248.88 559.79 246.74 562.69 244.79 565.59 243.03 568.49 241.45 571.39 240.04 574.29 238.78 577.19 237.67 580.09 236.7 582.99 235.85 585.89 235.13 588.79 234.5 591.69 233.98 594.59 233.54 597.49 233.17 599.1 233"/><rect class="cls-11" x="87.77" y="274.7" width="162.63" height="84.57"/><text class="cls-2" transform="translate(115.1 287.38)">Additive on RA</text><line class="cls-5" x1="91.44" y1="281.63" x2="112.11" y2="281.63"/><text class="cls-2" transform="translate(115.1 300.92)">Multiplicative on RA</text><line class="cls-6" x1="91.44" y1="296.87" x2="112.11" y2="296.87"/><text class="cls-2" transform="translate(115.1 314.46)">Multiplicative on RA-RAR</text><line class="cls-7" x1="91.44" y1="310.14" x2="112.11" y2="310.14"/><text class="cls-2" transform="translate(115.1 328)">Multiplicative on RAout</text><line class="cls-8" x1="91.44" y1="323.4" x2="112.11" y2="323.4"/><text class="cls-2" transform="translate(115.1 341.54)">Multiplicative on RA-BP</text><line class="cls-9" x1="91.44" y1="337.67" x2="112.11" y2="337.67"/><text class="cls-2" transform="translate(115.1 354.08)">Experimental Values</text><line class="cls-12" x1="91.44" y1="350.94" x2="112.11" y2="350.94"/><line class="cls-1" x1="48.65" y1="190.67" x2="299.9" y2="190.67"/><line class="cls-1" x1="48.65" y1="190.67" x2="48.65" y2="188.16"/><line class="cls-1" x1="84.54" y1="190.67" x2="84.54" y2="188.16"/><line class="cls-1" x1="120.43" y1="190.67" x2="120.43" y2="188.16"/><line class="cls-1" x1="156.33" y1="190.67" x2="156.33" y2="188.16"/><line class="cls-1" x1="192.22" y1="190.67" x2="192.22" y2="188.16"/><line class="cls-1" x1="228.11" y1="190.67" x2="228.11" y2="188.16"/><line class="cls-1" x1="264.01" y1="190.67" x2="264.01" y2="188.16"/><line class="cls-1" x1="299.9" y1="190.67" x2="299.9" y2="188.16"/><text class="cls-2" transform="translate(37.9 204.17)">0.48</text><text class="cls-2" transform="translate(76.42 204.17)">0.5</text><text class="cls-2" transform="translate(109.68 204.17)">0.52</text><text class="cls-2" transform="translate(145.58 204.17)">0.54</text><text class="cls-2" transform="translate(181.47 204.17)">0.56</text><text class="cls-2" transform="translate(217.36 204.17)">0.58</text><text class="cls-2" transform="translate(255.88 204.17)">0.6</text><text class="cls-2" transform="translate(289.15 204.17)">0.62</text><line class="cls-1" x1="48.65" y1="190.67" x2="48.65" y2="6.17"/><line class="cls-1" x1="48.65" y1="190.67" x2="51.16" y2="190.67"/><line class="cls-1" x1="48.65" y1="153.77" x2="51.16" y2="153.77"/><line class="cls-1" x1="48.65" y1="116.87" x2="51.16" y2="116.87"/><line class="cls-1" x1="48.65" y1="79.97" x2="51.16" y2="79.97"/><line class="cls-1" x1="48.65" y1="43.07" x2="51.16" y2="43.07"/><line class="cls-1" x1="48.65" y1="6.17" x2="51.16" y2="6.17"/><text class="cls-2" transform="translate(22.15 194.8)">0.04</text><text class="cls-2" transform="translate(16.9 157.9)">0.045</text><text class="cls-2" transform="translate(22.15 121)">0.05</text><text class="cls-2" transform="translate(16.9 84.1)">0.055</text><text class="cls-2" transform="translate(22.15 47.2)">0.06</text><text class="cls-2" transform="translate(16.9 10.3)">0.065</text><polygon class="cls-4" points="177.02 146.8 176.35 144.3 174.52 142.47 172.02 141.8 169.52 142.47 167.69 144.3 167.02 146.8 167.69 149.3 169.52 151.13 172.02 151.8 174.52 151.13 176.35 149.3 177.02 146.8"/><polygon class="cls-4" points="183.02 155.05 182.35 152.55 180.52 150.72 178.02 150.05 175.52 150.72 173.69 152.55 173.02 155.05 173.69 157.55 175.52 159.38 178.02 160.05 180.52 159.38 182.35 157.55 183.02 155.05"/><polygon class="cls-4" points="189.77 127.3 189.1 124.8 187.27 122.97 184.77 122.3 182.27 122.97 180.44 124.8 179.77 127.3 180.44 129.8 182.27 131.63 184.77 132.3 187.27 131.63 189.1 129.8 189.77 127.3"/><polygon class="cls-13" points="284.27 98.05 283.6 95.55 281.77 93.72 279.27 93.05 276.77 93.72 274.94 95.55 274.27 98.05 274.94 100.55 276.77 102.38 279.27 103.05 281.77 102.38 283.6 100.55 284.27 98.05"/><polygon class="cls-13" points="270.02 11.05 269.35 8.55 267.52 6.72 265.02 6.05 262.52 6.72 260.69 8.55 260.02 11.05 260.69 13.55 262.52 15.38 265.02 16.05 267.52 15.38 269.35 13.55 270.02 11.05"/><polygon class="cls-13" points="264.77 113.05 264.1 110.55 262.27 108.72 259.77 108.05 257.27 108.72 255.44 110.55 254.77 113.05 255.44 115.55 257.27 117.38 259.77 118.05 262.27 117.38 264.1 115.55 264.77 113.05"/><polygon class="cls-14" points="87.77 101.05 87.1 98.55 85.27 96.72 82.77 96.05 80.27 96.72 78.44 98.55 77.77 101.05 78.44 103.55 80.27 105.38 82.77 106.05 85.27 105.38 87.1 103.55 87.77 101.05"/><polygon class="cls-14" points="56.27 146.05 55.6 143.55 53.77 141.72 51.27 141.05 48.77 141.72 46.94 143.55 46.27 146.05 46.94 148.55 48.77 150.38 51.27 151.05 53.77 150.38 55.6 148.55 56.27 146.05"/><polygon class="cls-14" points="87.77 148.3 87.1 145.8 85.27 143.97 82.77 143.3 80.27 143.97 78.44 145.8 77.77 148.3 78.44 150.8 80.27 152.63 82.77 153.3 85.27 152.63 87.1 150.8 87.77 148.3"/><text class="cls-2" transform="translate(87.65 218.43)">Mean of Relative RA Abundance</text><text class="cls-2" transform="translate(10.3 174.68) rotate(-90)">Standard Deviation [RA] (uM)</text><rect class="cls-15" x="58.4" y="6.92" width="89.25" height="41.25"/><text class="cls-16" transform="translate(97.4 18.72)">Wildtype</text><polygon class="cls-4" points="82.77 14.8 81.89 12.68 79.77 11.8 77.65 12.68 76.77 14.8 77.65 16.92 79.77 17.8 81.89 16.92 82.77 14.8"/><text class="cls-16" transform="translate(97.4 31.3)">Knockdown</text><polygon class="cls-13" points="82.77 27.55 81.89 25.43 79.77 24.55 77.65 25.43 76.77 27.55 77.65 29.67 79.77 30.55 81.89 29.67 82.77 27.55"/><text class="cls-16" transform="translate(97.4 43.87)">GoF</text><polygon class="cls-14" points="82.77 40.3 81.89 38.18 79.77 37.3 77.65 38.18 76.77 40.3 77.65 42.42 79.77 43.3 81.89 42.42 82.77 40.3"/><rect class="cls-17" x="58.4" y="6.92" width="97.93" height="41.25"/><text class="cls-2" transform="translate(318.78 364.38) rotate(-90)">Estimated CDF</text><text class="cls-2" transform="translate(470.5 442.06) scale(1.02 1)">ζ</text></svg>